<svg width="28" height="45" viewBox="0 0 28 45" fill="none" xmlns="http://www.w3.org/2000/svg">
<path d="M5.68034 28.5132C9.20682 33.4673 12.3934 38.6 14.0079 44.7145C15.7924 37.3503 20.2111 31.6374 24.29 25.7014C24.6723 25.1658 25.0122 24.6302 25.3521 24.05C27.434 20.4795 28.4962 16.6412 27.7739 12.3565C26.2869 3.83188 19.1065 -1.3454 10.8214 0.305972C3.55595 1.73419 -1.24517 9.76788 0.284392 17.757C1.09166 21.9077 3.34351 25.2551 5.68034 28.5132Z" fill="#3498DB"/>
<path d="M14.3329 13.9037C14.6919 11.5153 15.051 9.12697 15.41 6.73861C15.5447 5.84883 15.6345 4.63124 16.8911 4.86539C18.103 5.05272 17.8785 6.12981 17.7439 7.11325C17.4297 9.22062 17.2053 11.3748 17.2951 13.5759C17.7888 11.89 18.2376 10.1572 18.7313 8.47133C18.9557 7.62838 19.1801 6.59812 20.3022 6.92593C21.4691 7.20692 21.1549 8.28402 20.9754 9.08014C20.5266 11.0938 20.0329 13.1075 19.8982 15.2149C20.3919 14.2315 20.8856 13.2949 21.3345 12.3114C21.6486 11.7026 22.0077 11.1407 22.7258 11.4217C23.4888 11.7026 23.399 12.3583 23.1746 13.0139C21.8731 16.4325 21.0652 19.9916 19.988 23.4571C18.5967 28.0465 13.2557 29.1236 10.2935 25.424C8.04939 22.661 6.65805 19.336 4.86277 16.2452C4.54859 15.6832 4.59348 15.0744 5.13206 14.6998C5.85018 14.2315 6.5234 14.4656 7.01711 15.1681C8.81239 17.7906 10.5628 20.3663 12.3581 22.9888C12.7171 23.5039 13.0175 24.4651 13.4801 24.3469C14.1085 23.8786 12.5105 21.8667 12.6901 21.4453C13.4082 21.4453 14.4182 23.4571 14.7817 23.8786C15.1856 24.3469 15.3652 24.9088 15.9486 24.6747C16.577 24.3469 13.9393 21.3634 14.1637 20.942C14.9716 20.5673 17.2502 24.6747 17.7888 23.7849C18.0986 23.4107 17.4386 22.6197 16.6667 21.9117C16.2149 21.4973 14.655 20.1031 14.7817 19.7676C15.5896 19.4866 17.0601 21.2252 17.2749 21.4453C17.6023 21.7808 18.0132 22.0522 18.3274 21.5839C18.5518 21.2561 18.2376 20.9282 17.9683 20.6941C17.0258 19.8511 16.0833 19.055 15.1856 18.2121C14.9163 17.9779 14.4226 17.7438 14.5573 17.2755C14.6919 16.7603 15.2305 16.9945 15.5896 16.9477C16.3077 16.8072 17.5644 17.416 17.5644 16.4325C17.6093 15.4491 16.2628 15.7769 15.4998 15.5896C14.8715 15.4491 14.1533 15.2618 13.525 15.3086C11.3707 15.5896 11.236 14.2783 11.4155 12.5924C11.5502 11.1407 11.5502 9.68893 11.64 8.23718C11.6848 7.48789 11.8195 6.78543 12.7171 6.78543C13.6148 6.78543 13.8841 7.48789 13.8841 8.19035C13.9289 10.0636 13.8841 11.89 13.8841 13.7632C14.0636 13.81 14.1982 13.8568 14.3329 13.9037Z" fill="#FDFEFE"/>
</svg>
