<svg width="16" height="18" viewBox="0 0 16 18" fill="none" xmlns="http://www.w3.org/2000/svg">
<path d="M14.5 7.5C14.5 12.5556 8 16.8889 8 16.8889C8 16.8889 1.5 12.5556 1.5 7.5C1.5 5.77609 2.18482 4.12279 3.40381 2.90381C4.62279 1.68482 6.27609 1 8 1C9.72391 1 11.3772 1.68482 12.5962 2.90381C13.8152 4.12279 14.5 5.77609 14.5 7.5Z" stroke="#3498DB" stroke-width="1.3" stroke-linecap="round" stroke-linejoin="round"/>
<path d="M7.99998 9.66666C9.1966 9.66666 10.1666 8.69661 10.1666 7.5C10.1666 6.30338 9.1966 5.33333 7.99998 5.33333C6.80336 5.33333 5.83331 6.30338 5.83331 7.5C5.83331 8.69661 6.80336 9.66666 7.99998 9.66666Z" stroke="#3498DB" stroke-width="1.3" stroke-linecap="round" stroke-linejoin="round"/>
</svg>
